# xmcd
#
# Track frame offsets:
#	150
#	12015
#	23892
#	40680
#	53487
#	66792
#	81542
#	95547
#	116575
#	128180
#	146665
#	160960
#
# Disc length: 2367 seconds
#
# Revision: 1
# Processed by: cddbd v1.5.1PL0 Copyright (c) Steve Scherf et al.
# Submitted via: CDex 1.50Beta5
#
DISCID=9a093d0c
DTITLE=NOVO - novo complete
DYEAR=1900
DGENRE=
TTITLE0=白い森
TTITLE1=SAMBA DO COMEGO
TTITLE2=季節のノクターン
TTITLE3=この星の上で
TTITLE4=風のささやき
TTITLE5=翔ける愛の翼
TTITLE6=愛を育てる
TTITLE7=やさしい朝
TTITLE8=You Are The Sea
TTITLE9=悲しみのはてに
TTITLE10=窓に明かりがともる時
TTITLE11=白い森 - album version
EXTD=
EXTT0=
EXTT1=
EXTT2=
EXTT3=
EXTT4=
EXTT5=
EXTT6=
EXTT7=
EXTT8=
EXTT9=
EXTT10=
EXTT11=
PLAYORDER=
